<?xml version="1.0" encoding="utf-8"?><svg version="1.1" id="Layer_1" xmlns="http://www.w3.org/2000/svg" xmlns:xlink="http://www.w3.org/1999/xlink" x="0px" y="0px" viewBox="0 0 100.5 122.88" style="enable-background:new 0 0 100.5 122.88" xml:space="preserve"><style type="text/css">.st0{fill-rule:evenodd;clip-rule:evenodd;}</style><g><path class="st0" d="M25.79,28.71c7.61,8.17,19.38-2.53,30.84-5.53c6.5-1.7,10,9.84,18.4,5.63l0.78,9.14 c5.22-1.18,1.51,14.92-3.02,14.07c-1.49,4.92-2.06,8.4-4.49,11.66c-4.56,6.1-11.95,9.22-17.86,9.09 c-5.59-0.12-12.69-3.19-17.24-8.82c-2.8-3.46-3.71-7.27-5.45-12.59c-4.82,1.44-8.05-14.9-2.81-13.5L25.79,28.71L25.79,28.71z M34.28,39.32c-0.32,0.28-0.79,0.23-1.06-0.1c-0.26-0.34-0.22-0.83,0.1-1.11c1.96-1.71,5.14-1.1,7.88-0.58 c1.18,0.22,2.27,0.43,3.04,0.4c0.41-0.02,0.76,0.32,0.77,0.76c0.01,0.43-0.31,0.8-0.72,0.81c-0.92,0.03-2.09-0.19-3.36-0.43 C38.53,38.62,35.71,38.08,34.28,39.32L34.28,39.32z M34.98,45.09c-0.35,0.15-0.73-0.08-0.85-0.5c-0.12-0.42,0.07-0.88,0.42-1.03 c1.36-0.56,2.73-0.82,4.1-0.81c1.37,0.01,2.73,0.29,4.08,0.81c0.35,0.13,0.55,0.59,0.44,1.02c-0.11,0.43-0.49,0.66-0.84,0.53 c-0.35-0.13-0.7-0.25-1.05-0.35c0.07,0.21,0.11,0.43,0.11,0.66c0,1.06-0.82,1.92-1.82,1.92c-1.01,0-1.82-0.86-1.82-1.92 c0-0.38,0.1-0.73,0.28-1.03C37.01,44.44,35.99,44.67,34.98,45.09L34.98,45.09z M59.31,44.58c-0.06,0.2-0.1,0.41-0.1,0.63 c0,1.06,0.82,1.93,1.82,1.93c1.01,0,1.82-0.86,1.82-1.93c0-0.34-0.08-0.65-0.23-0.93c0.99,0.07,2,0.27,3.01,0.62 c0.36,0.12,0.73-0.13,0.83-0.56c0.1-0.43-0.11-0.88-0.46-1c-1.37-0.47-2.73-0.7-4.09-0.7c-1.36,0-2.7,0.24-4.04,0.71 c-0.36,0.12-0.56,0.57-0.46,1c0.1,0.43,0.48,0.68,0.83,0.55C58.61,44.77,58.96,44.67,59.31,44.58L59.31,44.58z M47.68,53.05 c-0.3-0.29-0.33-0.79-0.05-1.11c0.28-0.32,0.75-0.34,1.06-0.05c0.54,0.52,1.05,0.77,1.55,0.76c0.5-0.01,1.02-0.27,1.57-0.77 c0.31-0.28,0.78-0.25,1.06,0.08c0.27,0.33,0.24,0.83-0.08,1.11c-0.82,0.75-1.67,1.15-2.54,1.16 C49.37,54.23,48.51,53.85,47.68,53.05L47.68,53.05z M43.77,59.53c-0.32-0.27-0.37-0.77-0.11-1.11c0.26-0.34,0.73-0.39,1.05-0.12 c2.05,1.73,3.97,2.58,5.77,2.58c1.77-0.01,3.46-0.86,5.09-2.53c0.3-0.3,0.77-0.3,1.06,0.02c0.29,0.31,0.28,0.81-0.01,1.11 c-1.91,1.96-3.95,2.96-6.13,2.97C48.33,62.46,46.1,61.5,43.77,59.53L43.77,59.53z M67.26,37.91c0.32,0.28,0.36,0.78,0.1,1.11 c-0.26,0.34-0.74,0.38-1.06,0.1c-1.43-1.24-4.24-0.71-6.66-0.25c-1.27,0.24-2.44,0.46-3.36,0.43c-0.41-0.01-0.74-0.38-0.72-0.81 c0.01-0.43,0.36-0.77,0.77-0.76c0.77,0.03,1.86-0.18,3.04-0.4C62.11,36.81,65.3,36.2,67.26,37.91L67.26,37.91z M54.99,122.88 l9.82-53.82c-1.26,0.97-2.59,1.81-3.95,2.5c-3.46,1.76-7.17,2.63-10.46,2.56c-3.11-0.07-6.64-0.98-9.97-2.69 c-1.52-0.78-3.01-1.73-4.41-2.83l-0.43-0.09l9.92,54.38H5.85c-4.12-0.7-5.84-2.67-5.85-5.55V86.35 c2.06-7.26,6.16-11.79,11.94-14.09c-1.19,4.41-1.45,8.54-0.9,12.38c0.56,3.91,1.96,7.51,4.09,10.79c-1.16,1.43-1.85,3.25-1.85,5.23 c0,4.59,3.72,8.32,8.32,8.32c4.59,0,8.32-3.72,8.32-8.32c0-4.59-3.72-8.32-8.32-8.32c-1.16,0-2.27,0.24-3.27,0.67 c-1.73-2.74-2.86-5.72-3.32-8.94c-0.55-3.82-0.15-8.01,1.34-12.57c0.06-0.18,0.09-0.36,0.1-0.53c1.72-0.33,3.55-0.51,5.48-0.56 c3.99,0.23,7.71-0.33,10.87-2.56c-11.26-2.8-16.04-6.83-16.04-22.98v-5.52c0.71-12.11,3.76-22.83,10.29-30.68 c8.01-9.62,34.21-14.09,45.55,2.02c13.37,18.99,17.83,53.16-4.01,57.71c2.97,1.78,6.39,2.23,10.04,2.02 c1.14,0.03,2.25,0.11,3.32,0.23c-0.01,0.22,0.03,0.44,0.13,0.66c0.5,1.13,0.77,2.56,0.79,4.06c0.02,1.07-0.09,2.15-0.31,3.18 c-1.2-0.21-2.42-0.29-3.58-0.24c-1.29,0.05-2.5,0.27-3.49,0.63c-5.43,1.96-6.44,6.66-7.43,11.24c0,0.02-0.01,0.04-0.01,0.06 c-0.1,0.48-0.2,0.93-0.24,1.12c-0.14,0.6-0.3,1.23-0.46,1.84c-0.69,2.63-1.3,4.94-0.34,8.05c0.49,1.6,1.15,2.89,2.02,3.79 c0.32,0.33,0.65,0.6,1.01,0.82c0.58,0.99,1.65,1.65,2.88,1.65c1.84,0,3.33-1.49,3.33-3.33c0-1.84-1.49-3.33-3.33-3.33 c-0.97,0-1.84,0.41-2.45,1.08c-0.22-0.44-0.42-0.96-0.6-1.54c-0.71-2.3-0.2-4.22,0.37-6.41c0.16-0.61,0.32-1.23,0.49-1.95 c0.12-0.55,0.19-0.86,0.25-1.14l0.01-0.06c0.82-3.79,1.66-7.67,5.52-9.06c0.71-0.26,1.61-0.41,2.59-0.45 c1-0.04,2.09,0.04,3.16,0.25c0.15,0.03,0.31,0.03,0.46,0.02c0.12,0.09,0.26,0.16,0.4,0.21c0.03,0.01,0.05,0.02,0.08,0.02l0,0.01 c0.88,0.25,1.68,0.53,2.39,0.84c0.68,0.3,1.3,0.66,1.84,1.08c1.67,1.31,2.37,2.88,2.56,4.59c0.22,1.89-0.15,4.03-0.56,6.2 l-0.01,0.06c-0.11,0.62-0.17,0.93-0.22,1.25c-0.5,2.92-1.06,6.18-2.94,8.06c-0.41,0.41-0.86,0.73-1.35,0.94 c-0.55-1.09-1.68-1.84-2.98-1.84c-1.84,0-3.33,1.49-3.33,3.33c0,1.84,1.49,3.33,3.33,3.33c1.23,0,2.3-0.67,2.88-1.66 c0.15-0.03,0.3-0.07,0.45-0.12c1.18-0.35,2.21-0.98,3.12-1.89c2.54-2.55,3.19-6.31,3.77-9.66c0.09-0.5,0.17-1,0.21-1.22l0.01-0.04 c0.46-2.4,0.85-4.79,0.59-7.08c-0.28-2.47-1.29-4.73-3.69-6.62c-0.73-0.57-1.56-1.05-2.47-1.45c-0.44-0.2-0.9-0.38-1.37-0.54 c0.3-1.31,0.44-2.69,0.42-4.04c-0.02-1.44-0.23-2.85-0.63-4.1c7.56,1.78,12.87,6.55,15.3,15.14v30.97 c-0.01,2.88-1.73,4.86-5.85,5.55H54.99L54.99,122.88z M21.59,97.45c1.77,0,3.21,1.44,3.21,3.21s-1.44,3.21-3.21,3.21 c-1.77,0-3.21-1.44-3.21-3.21S19.81,97.45,21.59,97.45L21.59,97.45z M48.78,122.47l-6.55-32.5c5.13,1.09,10.53,1.19,16.28,0 l-6.26,32.5H48.78L48.78,122.47z"/></g></svg>